<svg data-v-423bf9ae="" xmlns="http://www.w3.org/2000/svg" viewBox="0 0 410.2226395137188 60" class="font"><!----><!----><!----><g data-v-423bf9ae="" id="8f095556-4e22-43f4-9f1a-02de9a2f5c01" fill="white" transform="matrix(6.072874423584482,0,0,6.072874423584482,-2.6720702516399513,-21.012145260426927)"><path d="M3.89 13.34C5.35 13.34 7.07 12.59 7.07 10.65C7.07 9.17 5.92 8.31 4.51 7.82C3.11 7.31 2.58 6.91 2.58 6.14C2.58 5.40 3.24 4.87 4.07 4.87C4.80 4.87 5.32 5.13 5.95 5.70L6.91 4.71C6.24 4.08 5.40 3.59 4.07 3.59C2.48 3.59 1.05 4.64 1.05 6.15C1.05 7.86 2.22 8.46 3.76 9.01C4.71 9.35 5.50 9.79 5.50 10.70C5.50 11.61 4.62 12.06 3.81 12.06C2.90 12.06 2.16 11.72 1.49 10.89L0.44 11.90C1.27 12.83 2.35 13.34 3.89 13.34ZM15.98 6.36C14.82 6.36 14.23 6.80 13.81 7.41C13.39 6.66 12.66 6.36 11.90 6.36C11.14 6.36 10.46 6.72 10.08 7.38L9.92 6.53L8.68 6.53L8.68 13.15L10.09 13.15L10.09 9.26C10.18 8.15 10.70 7.57 11.55 7.57C12.45 7.57 12.82 8.31 12.82 9.39L12.82 13.15L14.23 13.15L14.23 9.60C14.23 8.30 14.76 7.57 15.68 7.57C16.60 7.57 16.96 8.31 16.96 9.38L16.96 13.15L18.38 13.15L18.38 9.28C18.38 7.12 17.24 6.36 15.98 6.36ZM25.27 6.53L25.08 7.45C24.57 6.78 23.80 6.36 22.78 6.36C21.06 6.36 19.69 7.69 19.69 9.84C19.69 12.00 21.06 13.31 22.78 13.31C23.79 13.31 24.56 12.89 25.07 12.22L25.27 13.15L26.44 13.15L26.44 6.53ZM23.11 12.12C21.92 12.12 21.13 11.14 21.13 9.84C21.13 8.55 21.92 7.55 23.11 7.55C24.35 7.55 25.16 8.55 25.16 9.84C25.16 11.14 24.35 12.12 23.11 12.12ZM31.28 6.36C30.49 6.36 29.97 6.74 29.59 7.41L29.41 6.53L28.19 6.53L28.19 13.15L29.60 13.15L29.60 9.70C29.60 8.62 30.17 7.66 31.21 7.66C31.44 7.66 31.66 7.70 31.85 7.79L32.27 6.58C32.10 6.47 31.72 6.36 31.28 6.36ZM36.31 6.53L34.90 6.53L34.90 4.64L33.50 4.64L33.50 6.53L32.62 6.53L32.62 7.67L33.50 7.67L33.50 13.15L34.91 13.15L34.90 7.67L36.31 7.67ZM41.65 7.99C42.70 7.71 43.25 7.04 43.25 6.05C43.25 4.67 42.13 3.82 40.28 3.82L37.67 3.82L37.67 13.15L40.70 13.15C42.79 13.15 44.09 12.12 44.09 10.47C44.09 9.11 43.21 8.21 41.65 7.99ZM41.80 6.17C41.80 7 41.20 7.51 40.19 7.51L39.16 7.51L39.16 4.93L40.24 4.93C41.24 4.93 41.80 5.37 41.80 6.17ZM40.51 12.05L39.16 12.05L39.16 8.72L40.47 8.72C41.74 8.72 42.54 9.32 42.54 10.37C42.54 11.40 41.78 12.05 40.51 12.05ZM48.55 6.36C47.76 6.36 47.24 6.74 46.86 7.41L46.68 6.53L45.46 6.53L45.46 13.15L46.87 13.15L46.87 9.70C46.87 8.62 47.44 7.66 48.47 7.66C48.71 7.66 48.93 7.70 49.12 7.79L49.54 6.58C49.36 6.47 48.99 6.36 48.55 6.36ZM55.65 6.53L55.46 7.45C54.95 6.78 54.18 6.36 53.16 6.36C51.44 6.36 50.06 7.69 50.06 9.84C50.06 12.00 51.44 13.31 53.16 13.31C54.16 13.31 54.94 12.89 55.45 12.22L55.65 13.15L56.82 13.15L56.82 6.53ZM53.49 12.12C52.30 12.12 51.51 11.14 51.51 9.84C51.51 8.55 52.30 7.55 53.49 7.55C54.73 7.55 55.53 8.55 55.53 9.84C55.53 11.14 54.73 12.12 53.49 12.12ZM59.41 5.26C59.92 5.26 60.33 4.86 60.33 4.36C60.33 3.86 59.92 3.46 59.41 3.46C58.92 3.46 58.51 3.86 58.51 4.36C58.51 4.86 58.92 5.26 59.41 5.26ZM58.74 13.15L60.13 13.15L60.13 6.53L58.74 6.53ZM65.51 6.36C64.57 6.36 63.87 6.75 63.47 7.32L63.29 6.53L62.05 6.53L62.05 13.15L63.47 13.15L63.47 9.11C63.58 7.95 64.37 7.57 65.11 7.57C66.14 7.57 66.57 8.30 66.57 9.38L66.57 13.15L67.99 13.15L67.99 9.06C67.99 7 66.66 6.36 65.51 6.36Z"></path></g><!----><!----></svg>