<svg xmlns="http://www.w3.org/2000/svg" width="76" height="76" stroke="none" stroke-linecap="round" stroke-linejoin="round" fill="#00d8ff" fill-rule="evenodd"><circle cx="37.7359" cy="37.7484" r="6.3202"/><path d="M2.5197 37.7953c0-8.0261 15.733-14.4882 35.2754-14.4882s35.2758 6.4621 35.2758 14.4882S57.338 52.2836 37.7951 52.2836 2.5197 45.822 2.5197 37.7953zm3.1496 0c0-6.2816 14.3281-11.3386 32.1258-11.3386s32.1261 5.057 32.1261 11.3386S55.5932 49.134 37.7951 49.134 5.6693 44.0768 5.6693 37.7953z"/><path d="M19.2987 5.7581c7.2898-4.2087 21.4084 6.6922 31.6558 24.4413s12.6286 35.4266 5.3389 39.6354-21.4089-6.6917-31.6564-24.4409S12.0085 9.9671 19.2987 5.7581zm1.6517 2.8608c5.7049-3.2937 17.8109 7.0681 27.1432 23.2322s12.2531 31.8292 6.5481 35.1229-17.8113-7.0676-27.1438-23.232S15.2452 11.9129 20.9504 8.619z"/><path d="M56.2934 5.7585c7.2898 4.2088 4.9086 21.8863-5.3389 39.6354s-24.3661 28.65-31.6558 24.4413-4.9093-21.8865 5.3383-39.6357S49.0032 1.5495 56.2934 5.7585zm-1.6517 2.8608c5.7049 3.2938 2.7843 18.9587-6.5481 35.1228S26.6553 70.2683 20.9503 66.9745s-2.7849-18.9588 6.5476-35.1232S48.9365 5.3255 54.6417 8.6194z"/></svg>