<svg data-v-423bf9ae="" xmlns="http://www.w3.org/2000/svg" viewBox="0 0 406.7981032411087 60" class="font"><!----><!----><!----><g data-v-423bf9ae="" id="c73460c5-fca1-4dc2-84d6-e9c5353a92a4" fill="black" transform="matrix(4.731861084854148,0,0,4.731861084854148,-4.447955843699816,-13.722397120505313)"><path d="M8.04 4.60L2.95 4.60L2.95 7.58L7.88 7.58L7.88 9.14L2.95 9.14L2.95 12.67L0.94 12.67L0.94 3.04L8.04 3.04L8.04 4.60ZM17.34 9.90L17.34 9.90L17.34 9.90Q17.34 11.31 16.29 12.06L16.29 12.06L16.29 12.06Q15.24 12.81 13.21 12.81L13.21 12.81L13.21 12.81Q11.36 12.81 10.31 12.15L10.31 12.15L10.31 12.15Q9.26 11.50 8.96 10.17L8.96 10.17L10.90 9.84L10.90 9.84Q11.10 10.61 11.68 10.95L11.68 10.95L11.68 10.95Q12.25 11.30 13.27 11.30L13.27 11.30L13.27 11.30Q15.38 11.30 15.38 10.01L15.38 10.01L15.38 10.01Q15.38 9.60 15.14 9.34L15.14 9.34L15.14 9.34Q14.90 9.07 14.45 8.89L14.45 8.89L14.45 8.89Q14.01 8.72 12.76 8.46L12.76 8.46L12.76 8.46Q11.68 8.21 11.26 8.06L11.26 8.06L11.26 8.06Q10.83 7.90 10.49 7.69L10.49 7.69L10.49 7.69Q10.15 7.49 9.91 7.19L9.91 7.19L9.91 7.19Q9.67 6.90 9.54 6.50L9.54 6.50L9.54 6.50Q9.41 6.10 9.41 5.59L9.41 5.59L9.41 5.59Q9.41 4.29 10.39 3.59L10.39 3.59L10.39 3.59Q11.37 2.90 13.24 2.90L13.24 2.90L13.24 2.90Q15.03 2.90 15.93 3.46L15.93 3.46L15.93 3.46Q16.83 4.02 17.09 5.31L17.09 5.31L15.13 5.58L15.13 5.58Q14.98 4.96 14.52 4.64L14.52 4.64L14.52 4.64Q14.06 4.33 13.20 4.33L13.20 4.33L13.20 4.33Q11.37 4.33 11.37 5.48L11.37 5.48L11.37 5.48Q11.37 5.85 11.56 6.09L11.56 6.09L11.56 6.09Q11.76 6.33 12.14 6.50L12.14 6.50L12.14 6.50Q12.52 6.67 13.69 6.92L13.69 6.92L13.69 6.92Q15.08 7.21 15.68 7.46L15.68 7.46L15.68 7.46Q16.28 7.71 16.63 8.04L16.63 8.04L16.63 8.04Q16.97 8.37 17.16 8.84L17.16 8.84L17.16 8.84Q17.34 9.30 17.34 9.90ZM25.87 8.94L25.87 8.94L25.87 8.94Q25.87 10.79 25.13 11.80L25.13 11.80L25.13 11.80Q24.38 12.81 23.03 12.81L23.03 12.81L23.03 12.81Q22.25 12.81 21.67 12.47L21.67 12.47L21.67 12.47Q21.10 12.13 20.79 11.50L20.79 11.50L20.75 11.50L20.75 11.50Q20.79 11.70 20.79 12.74L20.79 12.74L20.79 15.58L18.87 15.58L18.87 6.98L18.87 6.98Q18.87 5.93 18.81 5.28L18.81 5.28L20.68 5.28L20.68 5.28Q20.71 5.40 20.74 5.76L20.74 5.76L20.74 5.76Q20.76 6.13 20.76 6.48L20.76 6.48L20.79 6.48L20.79 6.48Q21.44 5.12 23.15 5.12L23.15 5.12L23.15 5.12Q24.45 5.12 25.16 6.11L25.16 6.11L25.16 6.11Q25.87 7.11 25.87 8.94ZM23.86 8.94L23.86 8.94L23.86 8.94Q23.86 6.45 22.34 6.45L22.34 6.45L22.34 6.45Q21.57 6.45 21.17 7.12L21.17 7.12L21.17 7.12Q20.76 7.79 20.76 9.00L20.76 9.00L20.76 9.00Q20.76 10.19 21.17 10.85L21.17 10.85L21.17 10.85Q21.57 11.50 22.33 11.50L22.33 11.50L22.33 11.50Q23.86 11.50 23.86 8.94ZM34.45 8.97L34.45 8.97L34.45 8.97Q34.45 10.77 33.45 11.79L33.45 11.79L33.45 11.79Q32.45 12.81 30.69 12.81L30.69 12.81L30.69 12.81Q28.96 12.81 27.97 11.79L27.97 11.79L27.97 11.79Q26.99 10.76 26.99 8.97L26.99 8.97L26.99 8.97Q26.99 7.18 27.97 6.16L27.97 6.16L27.97 6.16Q28.96 5.14 30.73 5.14L30.73 5.14L30.73 5.14Q32.54 5.14 33.49 6.13L33.49 6.13L33.49 6.13Q34.45 7.12 34.45 8.97ZM32.44 8.97L32.44 8.97L32.44 8.97Q32.44 7.65 32.01 7.05L32.01 7.05L32.01 7.05Q31.58 6.46 30.75 6.46L30.75 6.46L30.75 6.46Q29.00 6.46 29.00 8.97L29.00 8.97L29.00 8.97Q29.00 10.21 29.43 10.85L29.43 10.85L29.43 10.85Q29.86 11.50 30.67 11.50L30.67 11.50L30.67 11.50Q32.44 11.50 32.44 8.97ZM37.89 12.67L35.97 12.67L35.97 7.01L35.97 7.01Q35.97 6.41 35.95 6.00L35.95 6.00L35.95 6.00Q35.94 5.59 35.92 5.28L35.92 5.28L37.75 5.28L37.75 5.28Q37.77 5.40 37.80 6.03L37.80 6.03L37.80 6.03Q37.84 6.65 37.84 6.86L37.84 6.86L37.86 6.86L37.86 6.86Q38.14 6.08 38.36 5.76L38.36 5.76L38.36 5.76Q38.58 5.44 38.88 5.29L38.88 5.29L38.88 5.29Q39.18 5.13 39.63 5.13L39.63 5.13L39.63 5.13Q40.00 5.13 40.23 5.24L40.23 5.24L40.23 6.84L40.23 6.84Q39.76 6.74 39.41 6.74L39.41 6.74L39.41 6.74Q38.69 6.74 38.29 7.32L38.29 7.32L38.29 7.32Q37.89 7.90 37.89 9.04L37.89 9.04L37.89 12.67ZM43.31 12.80L43.31 12.80L43.31 12.80Q42.46 12.80 42.01 12.34L42.01 12.34L42.01 12.34Q41.55 11.87 41.55 10.94L41.55 10.94L41.55 6.58L40.61 6.58L40.61 5.28L41.64 5.28L42.25 3.54L43.45 3.54L43.45 5.28L44.85 5.28L44.85 6.58L43.45 6.58L43.45 10.42L43.45 10.42Q43.45 10.96 43.65 11.21L43.65 11.21L43.65 11.21Q43.86 11.47 44.29 11.47L44.29 11.47L44.29 11.47Q44.52 11.47 44.93 11.38L44.93 11.38L44.93 12.56L44.93 12.56Q44.22 12.80 43.31 12.80ZM52.32 10.51L52.32 10.51L52.32 10.51Q52.32 11.59 51.44 12.20L51.44 12.20L51.44 12.20Q50.56 12.81 49.01 12.81L49.01 12.81L49.01 12.81Q47.48 12.81 46.67 12.33L46.67 12.33L46.67 12.33Q45.86 11.85 45.60 10.83L45.60 10.83L47.28 10.58L47.28 10.58Q47.43 11.10 47.78 11.32L47.78 11.32L47.78 11.32Q48.13 11.54 49.01 11.54L49.01 11.54L49.01 11.54Q49.81 11.54 50.18 11.33L50.18 11.33L50.18 11.33Q50.55 11.13 50.55 10.69L50.55 10.69L50.55 10.69Q50.55 10.34 50.25 10.13L50.25 10.13L50.25 10.13Q49.96 9.92 49.25 9.78L49.25 9.78L49.25 9.78Q47.62 9.45 47.05 9.18L47.05 9.18L47.05 9.18Q46.48 8.90 46.19 8.46L46.19 8.46L46.19 8.46Q45.89 8.02 45.89 7.38L45.89 7.38L45.89 7.38Q45.89 6.32 46.71 5.73L46.71 5.73L46.71 5.73Q47.52 5.13 49.02 5.13L49.02 5.13L49.02 5.13Q50.34 5.13 51.14 5.65L51.14 5.65L51.14 5.65Q51.95 6.16 52.14 7.13L52.14 7.13L50.44 7.31L50.44 7.31Q50.36 6.86 50.04 6.63L50.04 6.63L50.04 6.63Q49.72 6.41 49.02 6.41L49.02 6.41L49.02 6.41Q48.34 6.41 48.00 6.59L48.00 6.59L48.00 6.59Q47.65 6.76 47.65 7.17L47.65 7.17L47.65 7.17Q47.65 7.49 47.92 7.68L47.92 7.68L47.92 7.68Q48.18 7.87 48.80 7.99L48.80 7.99L48.80 7.99Q49.67 8.17 50.34 8.36L50.34 8.36L50.34 8.36Q51.02 8.54 51.42 8.80L51.42 8.80L51.42 8.80Q51.83 9.06 52.07 9.47L52.07 9.47L52.07 9.47Q52.32 9.88 52.32 10.51ZM66.09 3.04L63.60 12.67L61.21 12.67L59.90 7.10L59.90 7.10Q59.66 6.12 59.50 5.04L59.50 5.04L59.50 5.04Q59.34 5.94 59.23 6.41L59.23 6.41L59.23 6.41Q59.13 6.88 57.78 12.67L57.78 12.67L55.38 12.67L52.90 3.04L54.95 3.04L56.34 9.26L56.66 10.77L56.66 10.77Q56.85 9.82 57.03 8.95L57.03 8.95L57.03 8.95Q57.21 8.09 58.39 3.04L58.39 3.04L60.65 3.04L61.87 8.17L61.87 8.17Q62.01 8.74 62.35 10.77L62.35 10.77L62.52 9.97L62.88 8.40L64.05 3.04L66.09 3.04ZM70.11 12.81L70.11 12.81L70.11 12.81Q68.44 12.81 67.55 11.82L67.55 11.82L67.55 11.82Q66.65 10.83 66.65 8.94L66.65 8.94L66.65 8.94Q66.65 7.11 67.56 6.13L67.56 6.13L67.56 6.13Q68.47 5.14 70.14 5.14L70.14 5.14L70.14 5.14Q71.73 5.14 72.57 6.20L72.57 6.20L72.57 6.20Q73.41 7.25 73.41 9.29L73.41 9.29L73.41 9.34L68.67 9.34L68.67 9.34Q68.67 10.42 69.07 10.98L69.07 10.98L69.07 10.98Q69.47 11.53 70.21 11.53L70.21 11.53L70.21 11.53Q71.22 11.53 71.49 10.64L71.49 10.64L73.30 10.80L73.30 10.80Q72.52 12.81 70.11 12.81ZM70.11 6.35L70.11 6.35L70.11 6.35Q69.43 6.35 69.07 6.82L69.07 6.82L69.07 6.82Q68.70 7.29 68.68 8.14L68.68 8.14L71.55 8.14L71.55 8.14Q71.50 7.25 71.12 6.80L71.12 6.80L71.12 6.80Q70.75 6.35 70.11 6.35ZM76.58 12.81L76.58 12.81L76.58 12.81Q75.50 12.81 74.90 12.23L74.90 12.23L74.90 12.23Q74.30 11.64 74.30 10.58L74.30 10.58L74.30 10.58Q74.30 9.43 75.05 8.83L75.05 8.83L75.05 8.83Q75.80 8.23 77.22 8.22L77.22 8.22L78.81 8.19L78.81 7.81L78.81 7.81Q78.81 7.09 78.56 6.74L78.56 6.74L78.56 6.74Q78.31 6.38 77.73 6.38L77.73 6.38L77.73 6.38Q77.20 6.38 76.95 6.63L76.95 6.63L76.95 6.63Q76.70 6.87 76.64 7.43L76.64 7.43L74.63 7.33L74.63 7.33Q74.82 6.25 75.62 5.70L75.62 5.70L75.62 5.70Q76.43 5.14 77.81 5.14L77.81 5.14L77.81 5.14Q79.21 5.14 79.97 5.83L79.97 5.83L79.97 5.83Q80.73 6.52 80.73 7.79L80.73 7.79L80.73 10.49L80.73 10.49Q80.73 11.11 80.87 11.34L80.87 11.34L80.87 11.34Q81.01 11.58 81.34 11.58L81.34 11.58L81.34 11.58Q81.56 11.58 81.76 11.54L81.76 11.54L81.76 12.58L81.76 12.58Q81.59 12.62 81.46 12.65L81.46 12.65L81.46 12.65Q81.32 12.69 81.18 12.71L81.18 12.71L81.18 12.71Q81.05 12.73 80.89 12.74L80.89 12.74L80.89 12.74Q80.74 12.76 80.53 12.76L80.53 12.76L80.53 12.76Q79.81 12.76 79.46 12.40L79.46 12.40L79.46 12.40Q79.12 12.04 79.05 11.35L79.05 11.35L79.01 11.35L79.01 11.35Q78.20 12.81 76.58 12.81ZM78.81 9.63L78.81 9.25L77.83 9.26L77.83 9.26Q77.16 9.29 76.88 9.41L76.88 9.41L76.88 9.41Q76.60 9.53 76.45 9.78L76.45 9.78L76.45 9.78Q76.30 10.02 76.30 10.43L76.30 10.43L76.30 10.43Q76.30 10.96 76.55 11.21L76.55 11.21L76.55 11.21Q76.79 11.47 77.19 11.47L77.19 11.47L77.19 11.47Q77.64 11.47 78.02 11.22L78.02 11.22L78.02 11.22Q78.39 10.98 78.60 10.54L78.60 10.54L78.60 10.54Q78.81 10.11 78.81 9.63L78.81 9.63ZM84.57 12.67L82.65 12.67L82.65 7.01L82.65 7.01Q82.65 6.41 82.64 6.00L82.64 6.00L82.64 6.00Q82.62 5.59 82.60 5.28L82.60 5.28L84.43 5.28L84.43 5.28Q84.45 5.40 84.49 6.03L84.49 6.03L84.49 6.03Q84.52 6.65 84.52 6.86L84.52 6.86L84.55 6.86L84.55 6.86Q84.83 6.08 85.05 5.76L85.05 5.76L85.05 5.76Q85.26 5.44 85.57 5.29L85.57 5.29L85.57 5.29Q85.87 5.13 86.32 5.13L86.32 5.13L86.32 5.13Q86.69 5.13 86.91 5.24L86.91 5.24L86.91 6.84L86.91 6.84Q86.45 6.74 86.09 6.74L86.09 6.74L86.09 6.74Q85.37 6.74 84.97 7.32L84.97 7.32L84.97 7.32Q84.57 7.90 84.57 9.04L84.57 9.04L84.57 12.67Z"></path></g><!----><!----></svg>