<svg version="1.2" xmlns="http://www.w3.org/2000/svg" viewBox="0 0 640 350" width="640" height="350"><style>.a{fill:#c9c9c9}.b{fill:#cecece}.c{fill:#fff}.d{fill:none;stroke:#1f3969;stroke-linecap:round;stroke-linejoin:round;stroke-width:4}.e{fill:#ff3e3e}.f{opacity:.3;fill:#1f3969;stroke:#1f3969;stroke-linecap:round;stroke-linejoin:round;stroke-width:4}.g{fill:#50b56f}.h{fill:#5f5aff}.i{fill:#f6f9fd}.j{fill:#bfcfe2}.k{fill:#2d425e}.l{fill:#d0ddf0}.m{fill:#2aa1ff}.n{opacity:.3;fill:none;stroke:#fff;stroke-linecap:round;stroke-linejoin:round;stroke-width:2}.o{fill:none;stroke:#fff;stroke-linecap:round;stroke-linejoin:round;stroke-width:2}.p{fill:#1f3969}.q{fill:none;stroke:#fff;stroke-linecap:round;stroke-linejoin:round;stroke-width:4}.r{fill:none;stroke:#7bffa0;stroke-linecap:round;stroke-linejoin:round;stroke-width:4}.s{fill:none;stroke:#9169ff;stroke-linecap:round;stroke-linejoin:round;stroke-width:4}.t{fill:none;stroke:#ffc47d;stroke-linecap:round;stroke-linejoin:round;stroke-width:4}.u{fill:none;stroke:#ff5757;stroke-linecap:round;stroke-linejoin:round;stroke-width:4}.v{fill:#ffa364}.w{fill:#ff5252}.x{fill:#6567c3}</style><path class="a" d="m630.5 347.3h-620.3c-5 0-9-4-9-9 0-5 4-9 9-9h620.3c5 0 9 4 9 9 0 5-4 9-9 9z"/><path class="b" d="m126.9 254.3c-9.6 0-17.3-7.8-17.3-17.3 0-9.5 7.8-17.3 17.3-17.3h98v34.7h-98z"/><path class="c" d="m230.6 260.3h-103.7c-12.9 0-23.3-10.5-23.3-23.3 0-12.9 10.5-23.3 23.3-23.3h103.7z"/><path class="d" d="m120.5 231.6h104.4"/><path class="d" d="m120.5 242.2h104.4"/><path class="d" d="m126.9 254.3c-9.6 0-17.3-7.8-17.3-17.3 0-9.5 7.8-17.3 17.3-17.3h98v34.7h-98z"/><path class="e" d="m226.6 254.3l4 6h-103.7c-12.8 0-23.3-10.4-23.3-23.3 0-12.8 10.4-23.3 23.3-23.3h103.7l-4 6h-99.7c-9.5 0-17.3 7.8-17.3 17.3 0 9.5 7.7 17.3 17.3 17.3z"/><path class="d" d="m226.6 254.3l4 6h-103.7c-12.8 0-23.3-10.4-23.3-23.3 0-12.8 10.4-23.3 23.3-23.3h103.7l-4 6h-99.7c-9.5 0-17.3 7.8-17.3 17.3 0 9.5 7.7 17.3 17.3 17.3z"/><path class="f" d="m189.9 213.6h18.4v46.7h-18.4z"/><path class="g" d="m219.9 298.8h-189.9c-3.7 0-6.8-3-6.8-6.8v-25c0-3.7 3-6.8 6.8-6.8h189.9c3.7 0 6.8 3 6.8 6.8v25c0 3.8-3 6.8-6.8 6.8z"/><path class="d" d="m219.9 298.8h-189.9c-3.7 0-6.8-3-6.8-6.8v-25c0-3.7 3-6.8 6.8-6.8h189.9c3.7 0 6.8 3 6.8 6.8v25c0 3.8-3 6.8-6.8 6.8z"/><path class="f" d="m226.7 267.1v25q0 0.1 0 0.3h-19.7c-9.5 0-17.1-7.7-17.1-17.1v-15h30c3.8 0 6.8 3 6.8 6.8z"/><path class="b" d="m271.3 318c0 4.2 0.7 8.2 2 11.4h-219.9c1.3-3.3 2-7.2 2-11.4 0-4.2-0.7-8.2-2-11.4h220c-1.3 3.2-2 7.1-2.1 11.4z"/><path class="h" d="m47.5 300.5h231.9v6h-231.9z"/><path class="d" d="m47.5 300.5h231.9v6h-231.9z"/><path class="i" d="m47.5 329.3h231.9v6h-231.9z"/><path class="h" d="m47.5 329.3h231.9v6h-231.9z"/><path class="d" d="m47.5 329.3h231.9v6h-231.9z"/><path class="j" d="m407.4 335.3v0.1h-81v-0.1c7.4-6 12.1-13.5 12.8-21.3l3-33.7h49.4l3 33.7c0.7 7.8 5.4 15.3 12.8 21.3z"/><path class="f" d="m391.6 280.3l1.8 20.2h-53l1.8-20.2z"/><path class="d" d="m407.4 335.3v0.1h-81v-0.1c7.4-6 12.1-13.5 12.8-21.3l3-33.7h49.4l3 33.7c0.7 7.8 5.4 15.3 12.8 21.3z"/><path class="c" d="m524.9 285.3h-316c-6.6 0-12-5.4-12-12v-206c0-6.6 5.4-12 12-12h316c6.6 0 12 5.4 12 12v206c0 6.7-5.4 12-12 12z"/><path class="j" d="m524.9 285.3h-316c-6.6 0-12-5.4-12-12v-206c0-6.6 5.4-12 12-12h316c6.6 0 12 5.4 12 12v206c0 6.7-5.4 12-12 12z"/><path class="d" d="m524.9 285.3h-316c-6.6 0-12-5.4-12-12v-206c0-6.6 5.4-12 12-12h316c6.6 0 12 5.4 12 12v206c0 6.7-5.4 12-12 12z"/><path class="i" d="m520 72.3v174.6h-306v-174.6z"/><path class="f" d="m430 55.3v138.6c0 4.4-3.6 8-8 8h-189.1c-4.4 0-8-3.6-8-8v-138.6z"/><path class="d" d="m520 72.3v174.6h-306v-174.6z"/><path class="d" d="m353.5 266h26.9"/><path class="k" d="m431 190.9h-189.1c-4.4 0-8-3.6-8-8v-148.2c0-4.4 3.6-8 8-8h189.1c4.4 0 8 3.6 8 8v148.3c0 4.4-3.6 7.9-8 7.9z"/><path class="d" d="m439 46.1h-205.1v-11.5c0-4.4 3.6-8 8-8h189.1c4.4 0 8 3.6 8 8z"/><path class="l" d="m439 49.9h-205.1v-15.3c0-4.4 3.6-8 8-8h189.1c4.4 0 8 3.6 8 8z"/><path class="d" d="m439 49.9h-205.1v-15.3c0-4.4 3.6-8 8-8h189.1c4.4 0 8 3.6 8 8z"/><path class="d" d="m439 49.9h-205.1v-15.3c0-4.4 3.6-8 8-8h189.1c4.4 0 8 3.6 8 8z"/><path class="d" d="m431 190.9h-189.1c-4.4 0-8-3.6-8-8v-148.2c0-4.4 3.6-8 8-8h189.1c4.4 0 8 3.6 8 8v148.3c0 4.4-3.6 7.9-8 7.9z"/><path class="f" d="m529.7 226.3h-116c-4.4 0-8-3.6-8-8v-122.9c0-4.4 3.6-8 8-8h116c4.4 0 8 3.6 8 8v122.9c0 4.5-3.6 8-8 8z"/><path class="m" d="m537.7 219.3h-116c-4.4 0-8-3.6-8-8v-122.9c0-4.4 3.6-8 8-8h116c4.4 0 8 3.6 8 8v122.9c0 4.5-3.6 8-8 8z"/><path class="d" d="m537.7 219.3h-116c-4.4 0-8-3.6-8-8v-122.9c0-4.4 3.6-8 8-8h116c4.4 0 8 3.6 8 8v122.9c0 4.5-3.6 8-8 8z"/><path class="n" d="m520.4 118.5h-81.6c-2.9 0-5.2-2.3-5.2-5.2v-7.8c0-2.9 2.3-5.2 5.2-5.2h81.6c2.9 0 5.2 2.3 5.2 5.2v7.8c0 2.9-2.3 5.2-5.2 5.2z"/><g style="opacity:.3"><path class="o" d="m484.6 147.8h-45.6c-2.9 0-5.2-2.3-5.2-5.2v-7.8c0-2.9 2.3-5.2 5.2-5.2h45.6c2.9 0 5.2 2.3 5.2 5.2v7.8c-0.1 2.9-2.4 5.2-5.2 5.2z"/><path class="o" d="m520.5 147.8h-17.7c-2.9 0-5.2-2.3-5.2-5.2v-7.8c0-2.9 2.3-5.2 5.2-5.2h17.7c2.9 0 5.2 2.3 5.2 5.2v7.8c0 2.9-2.3 5.2-5.2 5.2z"/></g><path class="o" d="m433.7 178.2h91.9"/><path class="o" d="m433.7 189h91.9"/><path class="o" d="m433.7 199.8h56"/><path class="p" d="m254 42.3c-2.2 0-4-1.8-4-4 0-2.2 1.8-4 4-4 2.2 0 4 1.8 4 4 0 2.2-1.8 4-4 4z"/><path class="p" d="m267.9 42.3c-2.2 0-4-1.8-4-4 0-2.2 1.8-4 4-4 2.2 0 4 1.8 4 4 0 2.2-1.8 4-4 4z"/><path class="p" d="m281.8 42.3c-2.2 0-4-1.8-4-4 0-2.2 1.8-4 4-4 2.2 0 4 1.8 4 4 0 2.2-1.8 4-4 4z"/><path class="q" d="m351.7 68.4h13"/><path class="r" d="m285.8 68.4h56.3"/><path class="s" d="m258 68.4h19.8"/><path class="s" d="m283.8 166.9h43"/><path class="r" d="m258 166.9h13.9"/><path class="q" d="m342.1 80.7h8.1"/><path class="s" d="m305.3 80.7h27.2"/><path class="t" d="m267.9 80.7h27.7"/><path class="q" d="m310.8 93h23.9"/><path class="u" d="m280.8 93h22.5"/><path class="q" d="m314 105.3h4.9"/><path class="s" d="m294.2 105.3h11.1"/><path class="r" d="m267.9 105.3h17.9"/><path class="t" d="m306.3 117.7h31.9"/><path class="u" d="m267.9 117.7h28.6"/><path class="s" d="m343.2 130h17.3"/><path class="u" d="m306.3 130h27.7"/><path class="r" d="m280.8 130h15.7"/><path class="q" d="m318.9 142.3h15.1"/><path class="s" d="m280.8 142.3h27.7"/><path class="q" d="m358.2 154.6h17.3"/><path class="t" d="m305.3 154.6h43.5"/><path class="q" d="m267.9 154.6h27.7"/><path class="d" d="m55.9 313.5h215.5"/><path class="d" d="m55.9 321.5h215.5"/><path class="d" d="m271.3 318c0 4.2 0.7 8.2 2 11.4h-219.9c1.3-3.3 2-7.2 2-11.4 0-4.2-0.7-8.2-2-11.4h220c-1.3 3.2-2 7.1-2.1 11.4z"/><path class="v" d="m559.6 226.2l9.7-1.1 8.5 72.1-9.7 1.1z"/><path class="m" d="m559.6 226.3l9.8-1.2 0.8 7.4-9.7 1.1z"/><path class="d" d="m559.6 226.3l9.8-1.2 0.8 7.4-9.7 1.1z"/><path class="d" d="m559.6 226.2l9.7-1.1 8.5 72.1-9.7 1.1z"/><path class="w" d="m586.3 238.8l9.7 1-7.8 72.2-9.8-1z"/><path class="d" d="m586.3 238.8l9.7 1-7.8 72.2-9.8-1z"/><path class="k" d="m586.4 238.8l9.7 1.1-0.8 7.3-9.7-1z"/><path class="d" d="m586.4 238.8l9.7 1.1-0.8 7.3-9.7-1z"/><path class="x" d="m602.1 335.6h-39.3l-6.4-60.2h52.1z"/><path class="x" d="m608.5 275.4l-6.4 60.2h-12.2l6.3-59.1h-39.7l-0.1-1.1z"/><path class="d" d="m602.1 335.6h-39.3l-6.4-60.2h52.1z"/></svg>