<svg data-v-fde0c5aa="" xmlns="http://www.w3.org/2000/svg" viewBox="0 0 300 300" class="font"><!----><defs data-v-fde0c5aa=""><!----></defs><rect data-v-fde0c5aa="" fill="#EECF6E" x="0" y="0" width="300px" height="300px" class="logo-background-square"></rect><defs data-v-fde0c5aa=""><!----></defs><g data-v-fde0c5aa="" id="c830ba7f-d737-448f-a509-7063edbb3f95" fill="#FAF9F8" transform="matrix(3.648424590108243,0,0,3.648424590108243,40.474295179317025,120.19237256016736)"><path d="M1.85 13.47L2.41 10.28L3.29 10.28C5.00 10.28 5.61 9.28 6.03 6.93C6.24 5.75 6.31 5.14 6.31 4.63C6.31 3.35 5.82 2.87 4.59 2.87L1.74 2.87L-0.13 13.47ZM2.79 8.09L3.32 5.08L3.79 5.08C4.07 5.08 4.21 5.15 4.21 5.59C4.21 5.77 4.19 6.02 4.06 6.78C3.91 7.64 3.68 8.09 3.32 8.09ZM10.81 12.78C11.26 12.14 11.51 11.49 12.00 8.71C12.45 6.16 12.59 5.15 12.59 4.51C12.59 3.00 11.93 2.69 10.49 2.69C9.27 2.69 8.65 2.91 8.22 3.56C7.77 4.21 7.52 4.83 7.01 7.71C6.58 10.16 6.44 11.20 6.44 11.84C6.44 13.36 7.13 13.65 8.55 13.65C9.76 13.65 10.37 13.44 10.81 12.78ZM9.51 11.03C9.42 11.21 9.28 11.28 8.97 11.28C8.57 11.28 8.51 11.14 8.51 10.85C8.51 10.54 8.58 9.95 8.92 8.11C9.32 5.77 9.44 5.39 9.58 5.12C9.65 4.94 9.79 4.86 10.11 4.86C10.42 4.86 10.56 4.94 10.56 5.22C10.56 5.50 10.50 6.03 10.08 8.40C9.73 10.37 9.63 10.75 9.51 11.03ZM18.09 13.47L18.09 13.40L17.50 7.78L19.82 2.94L19.84 2.87L17.72 2.87L15.69 7.31L15.57 7.31C15.61 7.13 15.65 6.96 15.69 6.73L16.38 2.87L14.35 2.87L12.49 13.47L14.52 13.47L15.22 9.49C15.26 9.23 15.30 8.95 15.32 8.71L15.44 8.71L15.88 13.47ZM23.45 13.47L23.86 11.12L21.63 11.12L21.98 9.11L24.18 9.11L24.56 6.97L22.36 6.97L22.69 5.11L24.93 5.11L25.33 2.87L21.11 2.87L19.25 13.47ZM27.89 13.47C29.39 13.47 30.04 12.82 30.41 11.26C30.56 10.51 30.72 9.79 30.72 9.06C30.72 8.46 30.52 8.25 30.21 8.05L30.23 7.95C30.70 7.63 30.93 7.38 31.14 6.44C31.26 5.80 31.40 5.17 31.40 4.52C31.40 3.36 30.88 2.87 29.57 2.87L26.74 2.87L24.88 13.47ZM27.22 11.33L27.64 8.97L28.31 8.97C28.56 8.97 28.69 9.07 28.69 9.44C28.69 9.81 28.62 10.16 28.55 10.49C28.41 11.10 28.18 11.33 27.78 11.33ZM27.94 7.22L28.35 4.97L28.88 4.97C29.19 4.97 29.32 5.03 29.32 5.35C29.32 5.75 29.22 6.15 29.12 6.50C28.98 7.01 28.80 7.22 28.48 7.22ZM36.27 13.47L37.18 2.87L33.85 2.87L30.97 13.47L32.97 13.47L33.54 11.02L34.50 11.02L34.24 13.47ZM34.79 8.88L34.01 8.88L35 5.08L35.14 5.08ZM40.11 13.47L41.58 5.11L43.08 5.11L43.47 2.87L38.50 2.87L38.11 5.11L39.61 5.11L38.14 13.47ZM46.16 13.47L47.63 5.11L49.13 5.11L49.52 2.87L44.55 2.87L44.16 5.11L45.65 5.11L44.18 13.47ZM52.89 13.47L53.30 11.12L51.25 11.12L52.71 2.87L50.74 2.87L48.87 13.47ZM58.30 13.47L58.70 11.12L56.48 11.12L56.83 9.11L59.02 9.11L59.40 6.97L57.20 6.97L57.54 5.11L59.78 5.11L60.17 2.87L55.96 2.87L54.10 13.47Z"></path></g><!----><!----></svg>